# xmcd
#
# Track frame offsets: 
#        150
#        15763
#        25359
#        41228
#        54915
#        70324
#        82946
#        99450
#        114157
#        133466
#        145674
#        163236
#        187931
#        203864
#        223737
#
# Disc length: 3194 seconds
#
# Revision: 0
# Processed by: cddbd v1.5.2PL0 Copyright (c) Steve Scherf et al.
# Submitted via: ExactAudioCopy v0.99pb4
#
DISCID=cd0c780f
DTITLE=Various Artist - Brewed in Texas
DYEAR=2011
DGENRE=Americana
TTITLE0=Gretchen Wilson - One Bud Wiser
TTITLE1=Hank Thompson - Six Pack to Go
TTITLE2=Willie Nelson - Whiskey River
TTITLE3=Tracy Byrd - Ten Rounds with Jose Cuervo
TTITLE4=Roger Creager - I'm From the Beer Joint
TTITLE5=Buck Owens - Close Up the Honky Tonks
TTITLE6=Mark Chesnutt - Since I Drank My Way to Houston
TTITLE7=Doug Supernaw - Honky Tonkin' Fool
TTITLE8=Wayne Hancock - Drinkin' Blues
TTITLE9=Todd Snider - Beer Run
TTITLE10=Cory Morrow - Drink One More Round
TTITLE11=Tommy Alverson - I Feel Like Drinkin' Today
TTITLE12=Reckless Kelly - I Hold the Bottle, You Hold the Wheel
TTITLE13=Slaid Cleaves - Drinkin' Days
TTITLE14=Chris Wall - I Drink Therefore I Am
EXTD=
EXTT0=
EXTT1=
EXTT2=
EXTT3=
EXTT4=
EXTT5=
EXTT6=
EXTT7=
EXTT8=
EXTT9=
EXTT10=
EXTT11=
EXTT12=
EXTT13=
EXTT14=
PLAYORDER=
